<?xml version="1.0" encoding="UTF-8"?>
<svg version="1.1" xmlns="http://www.w3.org/2000/svg" width="128" height="128">
<path d="M0 0 C2.67763919 1.5828409 5.30069269 2.50380011 8.25390625 3.46875 C12.70075185 5.02201438 15.15191091 6.0450508 17.37890625 10.40625 C18.14909772 13.02224517 18.81384739 15.65164437 19.4609375 18.30078125 C20.80153049 22.83597881 22.86801103 26.94550053 24.9765625 31.16796875 C30.77412045 44.55564435 30.74044543 63.12959641 25.5703125 76.73046875 C25.17714844 77.61347656 24.78398438 78.49648437 24.37890625 79.40625 C24.01667969 80.27894531 23.65445313 81.15164062 23.28125 82.05078125 C15.58927331 99.02527897 1.33142036 109.70706733 -15.48046875 116.57421875 C-31.7710965 121.58853047 -51.13332585 119.50443754 -66.12109375 111.90625 C-81.34516275 103.65172296 -91.74956045 90.72339499 -97.62109375 74.40625 C-102.67744288 56.98800653 -100.66114479 37.81258974 -92.08129883 21.98852539 C-83.63491376 7.39863122 -69.96586646 -3.44315907 -53.67114258 -8.15795898 C-35.34821245 -12.70964471 -15.78472969 -10.46973611 0 0 Z " fill="#FCBF44" transform="translate(99.62109375,9.59375)"/>
<path d="M0 0 C0.33 0 0.66 0 1 0 C2.1233384 15.57071835 -3.92736703 29.83653043 -13.85546875 41.625 C-24.30689729 53.19962396 -38.59602368 62.1567825 -54.46826172 63.15527344 C-74.92357686 64.03530655 -92.18301428 60.46905957 -107.6875 46.4375 C-111.84556212 42.56699404 -114.28217931 38.89855252 -117 34 C-115.2756498 34.01118614 -115.2756498 34.01118614 -113.51646423 34.02259827 C-102.67262625 34.08707002 -91.82960492 34.10418284 -80.98560238 34.07515812 C-75.4106694 34.06175233 -69.83678044 34.06491985 -64.26196289 34.10620117 C-58.87978691 34.1454423 -53.4992563 34.14083741 -48.11706734 34.10607719 C-46.06580408 34.10048654 -44.01443502 34.11058539 -41.96333122 34.13676643 C-31.10121378 34.71344065 -31.10121378 34.71344065 -21.27426147 31.10282898 C-19.45833367 28.80785228 -18.21584504 26.65295094 -17 24 C-16.32936523 23.07791748 -15.65873047 22.15583496 -14.96777344 21.20581055 C-14.43700195 20.44051025 -13.90623047 19.67520996 -13.359375 18.88671875 C-12.76382813 18.03142578 -12.16828125 17.17613281 -11.5546875 16.29492188 C-10.95914063 15.43447266 -10.36359375 14.57402344 -9.75 13.6875 C-8.53704515 11.94099856 -7.32352444 10.19488994 -6.109375 8.44921875 C-5.58311523 7.68955811 -5.05685547 6.92989746 -4.51464844 6.1472168 C-3.04564364 4.06470596 -1.58560414 1.99558637 0 0 Z " fill="#6354B1" transform="translate(127,65)"/>
<path d="M0 0 C0.53625 0.43957031 1.0725 0.87914062 1.625 1.33203125 C1.625 1.99203125 1.625 2.65203125 1.625 3.33203125 C0.573125 3.53828125 -0.47875 3.74453125 -1.5625 3.95703125 C-5.95261174 5.23673994 -7.87828326 7.47995399 -10.375 11.33203125 C-11.035 13.97203125 -11.695 16.61203125 -12.375 19.33203125 C-38.115 19.33203125 -63.855 19.33203125 -90.375 19.33203125 C-82.55398415 5.64525352 -69.68221388 -3.81759048 -54.42504883 -8.23217773 C-35.69329449 -12.88542141 -16.3294796 -10.17906705 0 0 Z " fill="#6353B1" transform="translate(100.375,9.66796875)"/>
<path d="M0 0 C8.25 0.33 16.5 0.66 25 1 C24.0925 3.000625 23.185 5.00125 22.25 7.0625 C15.93787431 21.54599058 12.79556198 34.73470737 17.75 50.0625 C18.00265625 50.89587891 18.2553125 51.72925781 18.515625 52.58789062 C20.30774339 58.34507097 22.50626179 63.38908902 25 69 C12.625 69.495 12.625 69.495 0 70 C-1.11375 67.710625 -2.2275 65.42125 -3.375 63.0625 C-3.72224121 62.36133057 -4.06948242 61.66016113 -4.42724609 60.93774414 C-8.43499461 52.51869713 -9.36883848 44.44471683 -9.3125 35.1875 C-9.30686035 34.21699707 -9.3012207 33.24649414 -9.29541016 32.24658203 C-9.08592407 19.86616194 -5.83360674 10.88939925 0 0 Z " fill="#FFB50A" transform="translate(9,29)"/>
<path d="M0 0 C28.71 0 57.42 0 87 0 C87 3.3 87 6.6 87 10 C84 13 84 13 80.94380188 13.36076355 C79.68915634 13.35410172 78.4345108 13.34743988 77.1418457 13.34057617 C76.10243332 13.34123329 76.10243332 13.34123329 75.04202271 13.34190369 C72.75298832 13.33981465 70.46468758 13.31647926 68.17578125 13.29296875 C66.58823548 13.28737318 65.00068452 13.2831029 63.41313171 13.28010559 C59.23564337 13.26865368 55.05846817 13.23918373 50.88110352 13.20599365 C46.61804439 13.17530011 42.35493465 13.1616018 38.09179688 13.14648438 C29.72772092 13.11431417 21.36389942 13.06311387 13 13 C12.67 13.66 12.34 14.32 12 15 C10.74027087 13.82282594 9.49272944 12.6326066 8.25 11.4375 C7.55390625 10.77621094 6.8578125 10.11492187 6.140625 9.43359375 C4 7 4 7 0 0 Z " fill="#54469D" transform="translate(10,99)"/>
<path d="M0 0 C2.38403619 3.74634258 3.30496957 7.30247132 4.26953125 11.59765625 C5.220063 14.72373661 6.59266575 17.55243554 8 20.5 C12.12610352 29.2553904 13.32049921 36.31380159 13 46 C8.68744776 42.0095145 5.54436521 37.63957023 2.3125 32.75 C1.35438145 31.30455156 0.39233028 29.86169976 -0.57421875 28.421875 C-0.99276123 27.78862305 -1.41130371 27.15537109 -1.8425293 26.50292969 C-2.94460976 24.84612929 -2.94460976 24.84612929 -5 24 C-6.11375 24.4640625 -6.11375 24.4640625 -7.25 24.9375 C-10.51622807 26.19945176 -12.5171798 26.41793842 -16 26 C-21.30103014 23.62367615 -24.48640659 21.42936177 -27 16 C-27.79411065 10.97336142 -27.60149016 7.20298032 -25.3125 2.625 C-17.87834662 -5.8137687 -9.16874089 -7.71007757 0 0 Z " fill="#FD7C7C" transform="translate(115,17)"/>
<path d="M0 0 C3.62011046 2.33296007 5.89022378 4.96794755 7.8125 8.8125 C8.32140436 14.91935229 7.8900461 17.94209772 3.8125 22.8125 C0.51675546 25.70876035 -2.09149155 26.70910298 -6.5 27.125 C-11.46508172 26.70423036 -14.22793811 25.09078581 -17.484375 21.3046875 C-20.29197368 17.17020999 -20.62777334 13.77630723 -19.796875 8.890625 C-18.5843499 4.7556035 -16.17619963 2.58742674 -12.875 0 C-8.27920085 -2.03070195 -4.65706181 -1.73498381 0 0 Z " fill="#FFC34B" transform="translate(104.1875,51.1875)"/>
<path d="M0 0 C4.28575173 2.26892739 7.5624855 4.7812249 10 9 C10.69269579 13.2729212 10.49934405 16.81734305 8.8125 20.8125 C5.04385592 25.36086354 1.65670788 27.69345678 -4.25 28.375 C-8.91333176 27.90866682 -11.70857878 26.30010571 -15 23 C-17.77609099 18.59145684 -17.63804927 14.04856483 -17 9 C-15.18766463 5.16621364 -13.69973473 3.46648982 -10.1875 1.125 C-6.44670843 -0.19527938 -3.94217103 -0.49277138 0 0 Z " fill="#FFC145" transform="translate(40,50)"/>
<path d="M0 0 C1.77070184 -0.03382071 3.54158923 -0.05802712 5.3125 -0.078125 C6.79169922 -0.09987793 6.79169922 -0.09987793 8.30078125 -0.12207031 C12.63907204 0.07412591 14.68751035 1.78125961 17.75 4.625 C20.03366478 8.96396309 20.72875285 13.50757901 19.33984375 18.2578125 C17.90582916 21.40451657 16.39807554 23.62534066 13.875 26 C9.63386183 27.47517849 5.45046231 27.42856304 1 27 C0 26 0 26 -0.11352539 23.49975586 C-0.10828857 22.41573486 -0.10305176 21.33171387 -0.09765625 20.21484375 C-0.09443359 19.04501953 -0.09121094 17.87519531 -0.08789062 16.66992188 C-0.07951172 15.43822266 -0.07113281 14.20652344 -0.0625 12.9375 C-0.05798828 11.70193359 -0.05347656 10.46636719 -0.04882812 9.19335938 C-0.03699608 6.12885883 -0.02051173 3.06445279 0 0 Z " fill="#FFFCF7" transform="translate(61,51)"/>
<path d="M0 0 C4.28575173 2.26892739 7.5624855 4.7812249 10 9 C10.69269579 13.2729212 10.49934405 16.81734305 8.8125 20.8125 C5.04385592 25.36086354 1.65670788 27.69345678 -4.25 28.375 C-8.91333176 27.90866682 -11.70857878 26.30010571 -15 23 C-17.77609099 18.59145684 -17.63804927 14.04856483 -17 9 C-15.18766463 5.16621364 -13.69973473 3.46648982 -10.1875 1.125 C-6.44670843 -0.19527938 -3.94217103 -0.49277138 0 0 Z M-11.95703125 7.20703125 C-14.14903108 10.97530062 -13.99718198 14.85525041 -13 19 C-11.28732566 21.94426038 -10.23317301 22.35505233 -7 24 C-3.75927904 24.35261731 -1.08573586 24.04809624 2 23 C4.66058731 20.85855167 5.7253011 19.43132584 6.37109375 16.06640625 C6.59425621 12.48904433 6.15244562 10.31151931 4.5625 7.0625 C1.43462494 4.54494203 -0.76882796 3.95729972 -4.73828125 3.75390625 C-7.70272533 4.07646234 -9.83733207 5.08733207 -11.95703125 7.20703125 Z " fill="#FFFAF2" transform="translate(40,50)"/>
<path d="M0 0 C3.62011046 2.33296007 5.89022378 4.96794755 7.8125 8.8125 C8.32140436 14.91935229 7.8900461 17.94209772 3.8125 22.8125 C0.51675546 25.70876035 -2.09149155 26.70910298 -6.5 27.125 C-11.46508172 26.70423036 -14.22793811 25.09078581 -17.484375 21.3046875 C-20.29197368 17.17020999 -20.62777334 13.77630723 -19.796875 8.890625 C-18.5843499 4.7556035 -16.17619963 2.58742674 -12.875 0 C-8.27920085 -2.03070195 -4.65706181 -1.73498381 0 0 Z M-13.0625 4.9375 C-15.46578762 8.18900678 -16.1875 9.78143988 -16.1875 13.8125 C-14.7375457 18.16236291 -14.03865325 20.2450645 -10.1875 22.8125 C-5.19476409 23.27479036 -2.18759315 22.89828614 1.8125 19.8125 C4.27178744 16.12356884 4.50555579 13.09608579 3.8125 8.8125 C1.6880173 5.36937286 0.66397359 4.09632453 -3.1875 2.8125 C-7.55947481 2.32672502 -9.47285006 2.28428048 -13.0625 4.9375 Z " fill="#FFFAF2" transform="translate(104.1875,51.1875)"/>
<path d="M0 0 C8.09275114 10.09824341 10.41623344 21.42050034 10 34 C5.75355752 30.02576537 2.43293194 25.71124834 -0.875 20.9375 C-1.38546875 20.23044922 -1.8959375 19.52339844 -2.421875 18.79492188 C-2.89882812 18.10849609 -3.37578125 17.42207031 -3.8671875 16.71484375 C-4.30144043 16.09730225 -4.73569336 15.47976074 -5.18310547 14.84350586 C-6.23853109 12.46170106 -5.90326508 11.40331942 -5 9 C-4.03114628 7.31503702 -3.03013277 5.64821244 -2 4 C-1.31903578 2.67391178 -0.64669414 1.34313399 0 0 Z " fill="#6555B0" transform="translate(118,29)"/>
<path d="M0 0 C1 2 1 2 0.8125 5.6875 C0.74237454 10.49985945 2.26006154 13.0858022 5 17 C5.99 17.66 6.98 18.32 8 19 C8 19.99 8 20.98 8 22 C14.93 21.01 14.93 21.01 22 20 C17.58069166 25.52413542 15.76846864 26.5189189 9.0625 27.375 C3.5944635 26.70544451 0.19917718 24.29142158 -3.4375 20.375 C-5.54998055 15.81204201 -5.82614118 11.94882632 -5 7 C-3.7667292 4.25140991 -2.14198688 2.14198688 0 0 Z " fill="#FD5A58" transform="translate(93,16)"/>
<path d="M0 0 C8 0 8 0 9.97265625 1.12890625 C11.4343452 3.79106977 11.43376145 5.91301454 11.4375 8.9375 C11.45683594 9.97777344 11.47617188 11.01804687 11.49609375 12.08984375 C11 15 11 15 9.41015625 17.37890625 C7 19 7 19 0 19 C0 12.73 0 6.46 0 0 Z " fill="#FFC144" transform="translate(65,55)"/>
<path d="M0 0 C4.95 0 9.9 0 15 0 C15 1.32 15 2.64 15 4 C13.02 4 11.04 4 9 4 C9 11.59 9 19.18 9 27 C7.68 27 6.36 27 5 27 C5 19.41 5 11.82 5 4 C3.35 4 1.7 4 0 4 C0 2.68 0 1.36 0 0 Z " fill="#FFFCF5" transform="translate(7,50)"/>
<path d="M0 0 C0.33 0 0.66 0 1 0 C1 6.27 1 12.54 1 19 C3.97 18.34 6.94 17.68 10 17 C11.21693876 14.56612247 11.31959896 12.58161154 11.5625 9.875 C11.64628906 8.96492188 11.73007813 8.05484375 11.81640625 7.1171875 C11.87699219 6.41851562 11.93757813 5.71984375 12 5 C12.33 5 12.66 5 13 5 C13 7.64 13 10.28 13 13 C13.99 13 14.98 13 16 13 C15.14653416 16.7552497 14.31921746 18.69674341 11.5 21.375 C6.9383867 23.49289189 2.96160114 23.56997678 -2 23 C-3 22 -3 22 -3.09765625 19.93359375 C-3.08605469 19.10988281 -3.07445312 18.28617188 -3.0625 17.4375 C-3.05347656 16.61121094 -3.04445312 15.78492187 -3.03515625 14.93359375 C-3.02355469 14.29550781 -3.01195312 13.65742187 -3 13 C-2.01 13 -1.02 13 0 13 C0 8.71 0 4.42 0 0 Z " fill="#FFE4B6" transform="translate(64,55)"/>
<path d="M0 0 C0.33 0 0.66 0 1 0 C1.0928125 1.85625 1.0928125 1.85625 1.1875 3.75 C1.61094111 6.92863124 1.95160295 7.93799128 4 10.5625 C8.17678085 12.56387416 11.60177758 12.37497827 16 11 C17.82337753 9.0431712 17.82337753 9.0431712 19 7 C20.32 7 21.64 7 23 7 C22.74433121 10.45152861 21.73802926 11.24488569 19.125 13.6875 C14.66104952 16.99082336 11.49337125 17.54933713 6 17 C2.1016034 15.10963062 -0.45793165 13.0605685 -2.4375 9.1875 C-2.7159375 8.1046875 -2.7159375 8.1046875 -3 7 C-2.01 7 -1.02 7 0 7 C0 4.69 0 2.38 0 0 Z " fill="#FFE3B4" transform="translate(26,61)"/>
<path d="M0 0 C1.20628008 2.33214148 2.1654738 4.49642139 3 7 C7.6135246 8.53784153 11.43721569 8.74741859 15.875 6.625 C18.09664825 5.17239958 18.09664825 5.17239958 19 3 C20.32 3 21.64 3 23 3 C21.64844718 7.42326378 19.80109562 9.40412982 16 12 C12.38069302 13.20643566 9.80768995 13.32268559 6 13 C1.08915291 10.54457646 -0.93429006 8.04951318 -3 3 C-2.01 3 -1.02 3 0 3 C0 2.01 0 1.02 0 0 Z " fill="#FFE4B5" transform="translate(88,65)"/>
<path d="M0 0 C1.32 0 2.64 0 4 0 C4 2.64 4 5.28 4 8 C5.32 8.33 6.64 8.66 8 9 C8 9.99 8 10.98 8 12 C5.36 12 2.72 12 0 12 C0 8.04 0 4.08 0 0 Z " fill="#FFF9EE" transform="translate(96,56)"/>
<path d="M0 0 C1.32 0.33 2.64 0.66 4 1 C4 5.29 4 9.58 4 14 C2.68 14 1.36 14 0 14 C0 9.38 0 4.76 0 0 Z " fill="#FFE9E9" transform="translate(101,17)"/>
<path d="M0 0 C0.33 0 0.66 0 1 0 C1 4.62 1 9.24 1 14 C1.99 14 2.98 14 4 14 C4 16.97 4 19.94 4 23 C2.68 23 1.36 23 0 23 C0 15.41 0 7.82 0 0 Z " fill="#FFE2A9" transform="translate(12,54)"/>
</svg>
